solid Matchbox
facet normal 0.707106781186548 -0.707106781186547 0.0
outer loop
vertex 155.891121202916 94.7576942900331 19.0000000000001
vertex 156.091121202916 94.9576942900332 0.200000000000096
vertex 156.091121202916 94.9576942900332 18.8000000000001
endloop
endfacet
facet normal 0.707106781186548 -0.707106781186547 0.0
outer loop
vertex 156.091121202916 94.9576942900332 0.200000000000096
vertex 155.891121202916 94.7576942900331 19.0000000000001
vertex 155.891121202916 94.7576942900331 9.58788604066285e-014
endloop
endfacet
facet normal 0.707106781186548 1.92188585055029e-015 -0.707106781186548
outer loop
vertex 156.091121202916 144.557694290033 0.200000000000096
vertex 155.891121202916 94.7576942900331 9.58788604066285e-014
vertex 155.891121202916 144.757694290033 9.58788604066285e-014
endloop
endfacet
facet normal 0.707106781186548 1.92188585055029e-015 -0.707106781186548
outer loop
vertex 155.891121202916 94.7576942900331 9.58788604066285e-014
vertex 156.091121202916 144.557694290033 0.200000000000096
vertex 156.091121202916 94.9576942900332 0.200000000000096
endloop
endfacet
facet normal 0.707106781186547 0.707106781186548 0.0
outer loop
vertex 155.891121202916 144.757694290033 19.0000000000001
vertex 156.091121202916 144.557694290033 0.200000000000096
vertex 155.891121202916 144.757694290033 9.58788604066285e-014
endloop
endfacet
facet normal 0.707106781186547 0.707106781186548 0.0
outer loop
vertex 156.091121202916 144.557694290033 0.200000000000096
vertex 155.891121202916 144.757694290033 19.0000000000001
vertex 156.091121202916 144.557694290033 18.8000000000001
endloop
endfacet
facet normal 0.707106781186552 5.69701877127398e-015 0.707106781186543
outer loop
vertex 155.891121202916 144.757694290033 19.0000000000001
vertex 156.091121202916 141.957694290033 18.8000000000001
vertex 156.091121202916 144.557694290033 18.8000000000001
endloop
endfacet
facet normal 0.707106781186552 5.69701877127398e-015 0.707106781186543
outer loop
vertex 156.091121202916 141.957694290033 18.8000000000001
vertex 155.891121202916 144.757694290033 19.0000000000001
vertex 155.891121202916 141.757694290033 19.0000000000001
endloop
endfacet
facet normal 0.707106781186548 -0.707106781186547 0.0
outer loop
vertex 155.891121202916 141.757694290033 19.0000000000001
vertex 156.091121202916 141.957694290033 2.80000000000009
vertex 156.091121202916 141.957694290033 18.8000000000001
endloop
endfacet
facet normal 0.707106781186548 -0.707106781186547 0.0
outer loop
vertex 156.091121202916 141.957694290033 2.80000000000009
vertex 155.891121202916 141.757694290033 19.0000000000001
vertex 155.891121202916 141.757694290033 3.00000000000009
endloop
endfacet
facet normal 0.707106781186548 -0.707106781186547 0.0
outer loop
vertex 155.891121202916 141.757694290033 3.00000000000009
vertex 155.891121202916 141.757694290033 19.0000000000001
vertex 155.891121202916 141.757694290033 18.8373674398
endloop
endfacet
facet normal 0.707106781186548 1.93964715451811e-015 0.707106781186548
outer loop
vertex 155.891121202916 141.757694290033 3.00000000000009
vertex 156.091121202916 97.5576942900332 2.80000000000009
vertex 156.091121202916 141.957694290033 2.80000000000009
endloop
endfacet
facet normal 0.707106781186548 1.93964715451811e-015 0.707106781186548
outer loop
vertex 156.091121202916 97.5576942900332 2.80000000000009
vertex 155.891121202916 141.757694290033 3.00000000000009
vertex 155.891121202916 97.7576942900331 3.00000000000009
endloop
endfacet
facet normal 0.707106781186547 0.707106781186548 0.0
outer loop
vertex 155.891121202916 97.7576942900331 3.00000000000009
vertex 156.091121202916 97.5576942900332 18.8000000000001
vertex 156.091121202916 97.5576942900332 2.80000000000009
endloop
endfacet
facet normal 0.707106781186547 0.707106781186548 0.0
outer loop
vertex 156.091121202916 97.5576942900332 18.8000000000001
vertex 155.891121202916 97.7576942900331 3.00000000000009
vertex 155.891121202916 97.7576942900331 19.0000000000001
endloop
endfacet
facet normal 0.707106781186548 -7.88860905221012e-031 0.707106781186548
outer loop
vertex 155.891121202916 97.7576942900331 19.0000000000001
vertex 156.091121202916 94.9576942900332 18.8000000000001
vertex 156.091121202916 97.5576942900332 18.8000000000001
endloop
endfacet
facet normal 0.707106781186548 -7.88860905221012e-031 0.707106781186548
outer loop
vertex 156.091121202916 94.9576942900332 18.8000000000001
vertex 155.891121202916 97.7576942900331 19.0000000000001
vertex 155.891121202916 94.7576942900331 19.0000000000001
endloop
endfacet
facet normal 1.0 2.6289322118799e-015 -1.43049701015491e-017
outer loop
vertex 156.091121202916 144.557694290033 0.200000000000096
vertex 156.091121202916 141.957694290033 2.80000000000009
vertex 156.091121202916 94.9576942900332 0.200000000000096
endloop
endfacet
facet normal 1.0 2.6289322118799e-015 -1.43049701015491e-017
outer loop
vertex 156.091121202916 141.957694290033 2.80000000000009
vertex 156.091121202916 144.557694290033 0.200000000000096
vertex 156.091121202916 144.557694290033 18.8000000000001
endloop
endfacet
facet normal 1.0 2.6289322118799e-015 -1.43049701015491e-017
outer loop
vertex 156.091121202916 141.957694290033 2.80000000000009
vertex 156.091121202916 144.557694290033 18.8000000000001
vertex 156.091121202916 141.957694290033 18.8000000000001
endloop
endfacet
facet normal 1.0 2.6289322118799e-015 -1.43049701015491e-017
outer loop
vertex 156.091121202916 94.9576942900332 0.200000000000096
vertex 156.091121202916 97.5576942900332 2.80000000000009
vertex 156.091121202916 94.9576942900332 18.8000000000001
endloop
endfacet
facet normal 1.0 2.6289322118799e-015 -1.43049701015491e-017
outer loop
vertex 156.091121202916 97.5576942900332 2.80000000000009
vertex 156.091121202916 94.9576942900332 0.200000000000096
vertex 156.091121202916 141.957694290033 2.80000000000009
endloop
endfacet
facet normal 1.0 2.6289322118799e-015 -1.43049701015491e-017
outer loop
vertex 156.091121202916 94.9576942900332 18.8000000000001
vertex 156.091121202916 97.5576942900332 2.80000000000009
vertex 156.091121202916 97.5576942900332 18.8000000000001
endloop
endfacet
facet normal -0.707106781186548 0.707106781186548 0.0
outer loop
vertex 111.491121202916 144.557694290033 0.200000000000096
vertex 111.691121202916 144.757694290033 19.0000000000001
vertex 111.691121202916 144.757694290033 9.58788604066285e-014
endloop
endfacet
facet normal -0.707106781186548 0.707106781186548 0.0
outer loop
vertex 111.691121202916 144.757694290033 19.0000000000001
vertex 111.491121202916 144.557694290033 0.200000000000096
vertex 111.491121202916 144.557694290033 18.8000000000001
endloop
endfacet
facet normal -0.707106781186548 -2.81876591414043e-015 -0.707106781186548
outer loop
vertex 111.491121202916 94.9576942900332 0.200000000000096
vertex 111.691121202916 144.757694290033 9.58788604066285e-014
vertex 111.691121202916 94.7576942900333 9.58788604066285e-014
endloop
endfacet
facet normal -0.707106781186548 -2.81876591414043e-015 -0.707106781186548
outer loop
vertex 111.691121202916 144.757694290033 9.58788604066285e-014
vertex 111.491121202916 94.9576942900332 0.200000000000096
vertex 111.491121202916 144.557694290033 0.200000000000096
endloop
endfacet
facet normal -0.707106781186548 -0.707106781186548 0.0
outer loop
vertex 111.691121202916 94.7576942900333 19.0000000000001
vertex 111.491121202916 94.9576942900332 0.200000000000096
vertex 111.691121202916 94.7576942900333 9.58788604066285e-014
endloop
endfacet
facet normal -0.707106781186548 -0.707106781186548 0.0
outer loop
vertex 111.491121202916 94.9576942900332 0.200000000000096
vertex 111.691121202916 94.7576942900333 19.0000000000001
vertex 111.491121202916 94.9576942900332 18.8000000000001
endloop
endfacet
facet normal -0.707106781186552 -4.55761501701925e-015 0.707106781186544
outer loop
vertex 111.691121202916 94.7576942900333 19.0000000000001
vertex 111.491121202916 97.5576942900332 18.8000000000001
vertex 111.491121202916 94.9576942900332 18.8000000000001
endloop
endfacet
facet normal -0.707106781186552 -4.55761501701925e-015 0.707106781186544
outer loop
vertex 111.491121202916 97.5576942900332 18.8000000000001
vertex 111.691121202916 94.7576942900333 19.0000000000001
vertex 111.691121202916 97.7576942900332 19.0000000000001
endloop
endfacet
facet normal -0.707106781186548 0.707106781186548 0.0
outer loop
vertex 111.491121202916 97.5576942900332 2.80000000000009
vertex 111.691121202916 97.7576942900332 19.0000000000001
vertex 111.691121202916 97.7576942900332 3.00000000000009
endloop
endfacet
facet normal -0.707106781186548 0.707106781186548 0.0
outer loop
vertex 111.691121202916 97.7576942900332 19.0000000000001
vertex 111.491121202916 97.5576942900332 2.80000000000009
vertex 111.491121202916 97.5576942900332 18.8000000000001
endloop
endfacet
facet normal -0.707106781186548 -2.92335057253221e-015 0.707106781186548
outer loop
vertex 111.491121202916 97.5576942900332 2.80000000000009
vertex 111.691121202916 141.757694290033 3.00000000000009
vertex 111.491121202916 141.957694290033 2.80000000000009
endloop
endfacet
facet normal -0.707106781186548 -2.92335057253221e-015 0.707106781186548
outer loop
vertex 111.691121202916 141.757694290033 3.00000000000009
vertex 111.491121202916 97.5576942900332 2.80000000000009
vertex 111.691121202916 97.7576942900332 3.00000000000009
endloop
endfacet
facet normal -0.707106781186548 -0.707106781186548 0.0
outer loop
vertex 111.691121202916 141.757694290033 3.00000000000009
vertex 111.491121202916 141.957694290033 18.8000000000001
vertex 111.491121202916 141.957694290033 2.80000000000009
endloop
endfacet
facet normal -0.707106781186548 -0.707106781186548 0.0
outer loop
vertex 111.491121202916 141.957694290033 18.8000000000001
vertex 111.691121202916 141.757694290033 3.00000000000009
vertex 111.691121202916 141.757694290033 19.0000000000001
endloop
endfacet
facet normal -0.707106781186547 2.2900059178367e-015 0.707106781186548
outer loop
vertex 111.691121202916 144.557694290033 19.0000000000001
vertex 111.491121202916 141.957694290033 18.8000000000001
vertex 111.691121202916 141.757694290033 19.0000000000001
endloop
endfacet
facet normal -0.707106781186547 2.2900059178367e-015 0.707106781186548
outer loop
vertex 111.491121202916 141.957694290033 18.8000000000001
vertex 111.691121202916 144.557694290033 19.0000000000001
vertex 111.491121202916 144.557694290033 18.8000000000001
endloop
endfacet
facet normal -0.707106781186547 2.2900059178367e-015 0.707106781186548
outer loop
vertex 111.491121202916 144.557694290033 18.8000000000001
vertex 111.691121202916 144.557694290033 19.0000000000001
vertex 111.691121202916 144.757694290033 19.0000000000001
endloop
endfacet
facet normal -0.0 0.0 -1.0
outer loop
vertex 111.691121202916 94.7576942900333 9.58788604066285e-014
vertex 155.891121202916 144.757694290033 9.58788604066285e-014
vertex 155.891121202916 94.7576942900331 9.58788604066285e-014
endloop
endfacet
facet normal -0.0 0.0 -1.0
outer loop
vertex 155.891121202916 144.757694290033 9.58788604066285e-014
vertex 111.691121202916 94.7576942900333 9.58788604066285e-014
vertex 111.691121202916 144.757694290033 9.58788604066285e-014
endloop
endfacet
facet normal -1.0 -4.1206514597855e-015 -5.81378757428843e-017
outer loop
vertex 111.491121202916 94.9576942900332 0.200000000000096
vertex 111.491121202916 97.5576942900332 2.80000000000009
vertex 111.491121202916 144.557694290033 0.200000000000096
endloop
endfacet
facet normal -1.0 -4.1206514597855e-015 -5.81378757428843e-017
outer loop
vertex 111.491121202916 97.5576942900332 2.80000000000009
vertex 111.491121202916 94.9576942900332 0.200000000000096
vertex 111.491121202916 94.9576942900332 18.8000000000001
endloop
endfacet
facet normal -1.0 -4.1206514597855e-015 -5.81378757428843e-017
outer loop
vertex 111.491121202916 144.557694290033 0.200000000000096
vertex 111.491121202916 97.5576942900332 2.80000000000009
vertex 111.491121202916 141.957694290033 2.80000000000009
endloop
endfacet
facet normal -1.0 -4.1206514597855e-015 -5.81378757428843e-017
outer loop
vertex 111.491121202916 97.5576942900332 2.80000000000009
vertex 111.491121202916 94.9576942900332 18.8000000000001
vertex 111.491121202916 97.5576942900332 18.8000000000001
endloop
endfacet
facet normal -1.0 -4.1206514597855e-015 -5.81378757428843e-017
outer loop
vertex 111.491121202916 141.957694290033 2.80000000000009
vertex 111.491121202916 144.557694290033 18.8000000000001
vertex 111.491121202916 144.557694290033 0.200000000000096
endloop
endfacet
facet normal -1.0 -4.1206514597855e-015 -5.81378757428843e-017
outer loop
vertex 111.491121202916 144.557694290033 18.8000000000001
vertex 111.491121202916 141.957694290033 2.80000000000009
vertex 111.491121202916 141.957694290033 18.8000000000001
endloop
endfacet
facet normal 0.0 0.0 1.0
outer loop
vertex 155.891121202916 144.757694290033 19.0000000000001
vertex 155.802544170469 141.757694290033 19.0000000000001
vertex 155.891121202916 141.757694290033 19.0000000000001
endloop
endfacet
facet normal 0.0 0.0 1.0
outer loop
vertex 155.802544170469 141.757694290033 19.0000000000001
vertex 155.891121202916 144.757694290033 19.0000000000001
vertex 111.691121202916 141.757694290033 19.0000000000001
endloop
endfacet
facet normal 0.0 0.0 1.0
outer loop
vertex 111.691121202916 141.757694290033 19.0000000000001
vertex 155.891121202916 144.757694290033 19.0000000000001
vertex 111.691121202916 144.557694290033 19.0000000000001
endloop
endfacet
facet normal 0.0 0.0 1.0
outer loop
vertex 111.691121202916 144.557694290033 19.0000000000001
vertex 155.891121202916 144.757694290033 19.0000000000001
vertex 111.691121202916 144.757694290033 19.0000000000001
endloop
endfacet
facet normal 0.0 0.0 1.0
outer loop
vertex 155.891121202916 97.7576942900331 19.0000000000001
vertex 111.691121202916 94.7576942900333 19.0000000000001
vertex 155.891121202916 94.7576942900331 19.0000000000001
endloop
endfacet
facet normal 0.0 0.0 1.0
outer loop
vertex 111.691121202916 94.7576942900333 19.0000000000001
vertex 155.891121202916 97.7576942900331 19.0000000000001
vertex 111.691121202916 97.7576942900332 19.0000000000001
endloop
endfacet
facet normal 2.04160469324735e-015 1.0 0.0
outer loop
vertex 111.691121202916 97.7576942900332 3.00000000000009
vertex 155.891121202916 97.7576942900331 19.0000000000001
vertex 155.891121202916 97.7576942900331 3.00000000000009
endloop
endfacet
facet normal 2.04160469324735e-015 1.0 0.0
outer loop
vertex 155.891121202916 97.7576942900331 19.0000000000001
vertex 111.691121202916 97.7576942900332 3.00000000000009
vertex 111.691121202916 97.7576942900332 19.0000000000001
endloop
endfacet
facet normal -7.86832990984191e-032 1.53816353593522e-016 1.0
outer loop
vertex 155.891121202916 141.757694290033 3.00000000000009
vertex 111.691121202916 97.7576942900332 3.00000000000009
vertex 155.891121202916 97.7576942900331 3.00000000000009
endloop
endfacet
facet normal -7.86832990984191e-032 1.53816353593522e-016 1.0
outer loop
vertex 111.691121202916 97.7576942900332 3.00000000000009
vertex 155.891121202916 141.757694290033 3.00000000000009
vertex 111.691121202916 141.757694290033 3.00000000000009
endloop
endfacet
facet normal -4.0832093864947e-015 1.0 0.0
outer loop
vertex 111.691121202916 144.757694290033 9.58788604066285e-014
vertex 155.891121202916 144.757694290033 19.0000000000001
vertex 155.891121202916 144.757694290033 9.58788604066285e-014
endloop
endfacet
facet normal -4.0832093864947e-015 1.0 0.0
outer loop
vertex 155.891121202916 144.757694290033 19.0000000000001
vertex 111.691121202916 144.757694290033 9.58788604066285e-014
vertex 111.691121202916 144.757694290033 19.0000000000001
endloop
endfacet
facet normal -2.09264481057854e-015 -1.0 0.0
outer loop
vertex 111.691121202916 94.7576942900333 19.0000000000001
vertex 155.891121202916 94.7576942900331 9.58788604066285e-014
vertex 155.891121202916 94.7576942900331 19.0000000000001
endloop
endfacet
facet normal -2.09264481057854e-015 -1.0 0.0
outer loop
vertex 155.891121202916 94.7576942900331 9.58788604066285e-014
vertex 111.691121202916 94.7576942900333 19.0000000000001
vertex 111.691121202916 94.7576942900333 9.58788604066285e-014
endloop
endfacet
facet normal 3.06362686885235e-015 -1.0 3.44506331555706e-018
outer loop
vertex 155.802544170469 141.757694290033 19.0000000000001
vertex 155.891121202916 141.757694290033 18.8373674398
vertex 155.891121202916 141.757694290033 19.0000000000001
endloop
endfacet
facet normal 3.06362686885235e-015 -1.0 3.44506331555706e-018
outer loop
vertex 155.891121202916 141.757694290033 18.8373674398
vertex 155.802544170469 141.757694290033 19.0000000000001
vertex 155.891121202916 141.757694290033 3.00000000000009
endloop
endfacet
facet normal 3.06362686885235e-015 -1.0 3.44506331555706e-018
outer loop
vertex 155.891121202916 141.757694290033 3.00000000000009
vertex 155.802544170469 141.757694290033 19.0000000000001
vertex 111.691121202916 141.757694290033 3.00000000000009
endloop
endfacet
facet normal 3.06362686885235e-015 -1.0 3.44506331555706e-018
outer loop
vertex 111.691121202916 141.757694290033 3.00000000000009
vertex 155.802544170469 141.757694290033 19.0000000000001
vertex 111.691121202916 141.757694290033 19.0000000000001
endloop
endfacet
endsolid Matchbox
